<svg width="37" height="36" viewBox="0 0 37 36" fill="none" xmlns="http://www.w3.org/2000/svg">
<path d="M26.1625 11.4338L25.8676 11.5375L9.86309 17.1295C9.74967 17.1636 9.6511 17.2331 9.58282 17.3273C9.51453 17.4215 9.48041 17.5349 9.48578 17.6499C9.49115 17.765 9.53573 17.875 9.61251 17.9628C9.68929 18.0506 9.79395 18.1112 9.91008 18.1351L14.053 19.235L14.8258 21.4347L15.5987 23.6344C15.6431 23.7423 15.7139 23.838 15.8051 23.9132C15.8963 23.9885 16.0051 24.041 16.1219 24.0662C16.2388 24.0915 16.3603 24.0886 16.4758 24.058C16.5912 24.0274 16.6973 23.9699 16.7847 23.8906L18.925 21.9297L23.1278 24.6935C23.6415 25.0328 24.3738 24.7814 24.505 24.2221L27.2886 12.2949C27.4247 11.7041 26.7831 11.2186 26.1625 11.4338ZM24.1194 14.0814L16.8884 19.8132L16.5481 20.0835C16.4734 20.1409 16.4246 20.2243 16.412 20.316L16.3359 20.9256L16.1269 22.6383C16.1286 22.6591 16.1217 22.6798 16.1077 22.6957C16.0937 22.7116 16.0738 22.7215 16.0523 22.7231C16.0309 22.7248 16.0096 22.7181 15.9932 22.7046C15.9767 22.691 15.9666 22.6717 15.9648 22.6508L15.3767 20.9398L14.7691 19.1879C14.7434 19.1091 14.7468 19.0241 14.7788 18.9476C14.8107 18.871 14.8692 18.8076 14.9441 18.7683L22.4684 14.5857L23.8845 13.8001C24.0903 13.6838 24.3009 13.9368 24.1194 14.0814Z" fill="url(#paint0_linear_2909_7)"/>
<path d="M35.6831 29.8809V6.11851C35.6831 3.1657 33.2894 0.771973 30.3366 0.771973L6.5742 0.771973C3.62139 0.771973 1.22766 3.1657 1.22766 6.11851V29.8809C1.22766 32.8337 3.62139 35.2274 6.5742 35.2274H30.3366C33.2894 35.2274 35.6831 32.8337 35.6831 29.8809Z" stroke="url(#paint1_linear_2909_7)" stroke-miterlimit="10"/>
<defs>
<linearGradient id="paint0_linear_2909_7" x1="9.48341" y1="18.1177" x2="27.3027" y2="18.1177" gradientUnits="userSpaceOnUse">
<stop stop-color="#9F734C"/>
<stop offset="0.13" stop-color="#BA945E"/>
<stop offset="0.28" stop-color="#D1B16E"/>
<stop offset="0.42" stop-color="#E2C579"/>
<stop offset="0.56" stop-color="#ECD180"/>
<stop offset="0.7" stop-color="#F0D683"/>
<stop offset="0.75" stop-color="#E7CC7D"/>
<stop offset="0.84" stop-color="#D2B16E"/>
<stop offset="0.95" stop-color="#AF8757"/>
<stop offset="1" stop-color="#9F734C"/>
</linearGradient>
<linearGradient id="paint1_linear_2909_7" x1="1.02964" y1="17.9997" x2="35.8811" y2="17.9997" gradientUnits="userSpaceOnUse">
<stop stop-color="#9F734C"/>
<stop offset="0.13" stop-color="#BA945E"/>
<stop offset="0.28" stop-color="#D1B16E"/>
<stop offset="0.42" stop-color="#E2C579"/>
<stop offset="0.56" stop-color="#ECD180"/>
<stop offset="0.7" stop-color="#F0D683"/>
<stop offset="0.75" stop-color="#E7CC7D"/>
<stop offset="0.84" stop-color="#D2B16E"/>
<stop offset="0.95" stop-color="#AF8757"/>
<stop offset="1" stop-color="#9F734C"/>
</linearGradient>
</defs>
</svg>
