<svg width="37" height="36" viewBox="0 0 37 36" fill="none" xmlns="http://www.w3.org/2000/svg">
<path d="M35.6831 29.8809V6.11851C35.6831 3.1657 33.2894 0.771973 30.3366 0.771973L6.5742 0.771973C3.62139 0.771973 1.22766 3.1657 1.22766 6.11851V29.8809C1.22766 32.8337 3.62139 35.2274 6.5742 35.2274H30.3366C33.2894 35.2274 35.6831 32.8337 35.6831 29.8809Z" stroke="url(#paint0_linear_2909_8)" stroke-miterlimit="10"/>
<path d="M8.44366 12.8909C9.38228 12.8909 11.3862 12.8909 12.0595 12.8909C12.1981 12.8909 12.3249 12.9741 12.3843 13.1008C13.2159 14.9068 14.2258 16.5424 15.4456 17.984C15.5486 18.1543 15.8021 18.1345 15.8813 17.9523C16.2615 17.0256 16.9664 14.7721 15.6041 13.1682C15.4813 13.0256 15.5328 12.7999 15.7031 12.7286C17.0813 12.1543 18.4318 12.0711 19.7427 12.6573C20.0199 12.7801 20.1981 13.0533 20.1981 13.3583L20.507 17.9999C20.507 18.2058 20.6971 18.3721 20.8991 18.3286C22.412 18.0078 23.3031 15.7424 24.1823 13.3781C24.2892 13.085 24.5664 12.8909 24.8753 12.8909H28.206C28.4793 12.8909 28.6971 13.1325 28.6496 13.4018C28.3367 15.081 26.6496 17.2553 25.7664 18.3008C25.4615 18.6612 25.4575 19.1919 25.7664 19.5523L28.7446 23.0969C28.9585 23.3504 28.7763 23.7385 28.4437 23.7385H24.6734C24.3645 23.7385 24.0674 23.6078 23.8575 23.382L21.2199 21.188C21.0813 21.0375 20.8239 20.986 20.6971 21.1405C20.3724 21.5365 20.3961 22.0276 20.2417 23.1405C20.1942 23.489 19.8813 23.7385 19.5288 23.7385H16.9506C16.5823 23.7385 16.2219 23.6632 15.8892 23.5048C14.412 22.8038 10.3684 20.3167 8.09911 13.3622C8.02386 13.1286 8.19812 12.887 8.44366 12.887V12.8909Z" fill="url(#paint1_linear_2909_8)"/>
<defs>
<linearGradient id="paint0_linear_2909_8" x1="1.02964" y1="17.9997" x2="35.8811" y2="17.9997" gradientUnits="userSpaceOnUse">
<stop stop-color="#9F734C"/>
<stop offset="0.13" stop-color="#BA945E"/>
<stop offset="0.28" stop-color="#D1B16E"/>
<stop offset="0.42" stop-color="#E2C579"/>
<stop offset="0.56" stop-color="#ECD180"/>
<stop offset="0.7" stop-color="#F0D683"/>
<stop offset="0.75" stop-color="#E7CC7D"/>
<stop offset="0.84" stop-color="#D2B16E"/>
<stop offset="0.95" stop-color="#AF8757"/>
<stop offset="1" stop-color="#9F734C"/>
</linearGradient>
<linearGradient id="paint1_linear_2909_8" x1="8.07931" y1="17.9999" x2="28.8318" y2="17.9999" gradientUnits="userSpaceOnUse">
<stop stop-color="#9F734C"/>
<stop offset="0.13" stop-color="#BA945E"/>
<stop offset="0.28" stop-color="#D1B16E"/>
<stop offset="0.42" stop-color="#E2C579"/>
<stop offset="0.56" stop-color="#ECD180"/>
<stop offset="0.7" stop-color="#F0D683"/>
<stop offset="0.75" stop-color="#E7CC7D"/>
<stop offset="0.84" stop-color="#D2B16E"/>
<stop offset="0.95" stop-color="#AF8757"/>
<stop offset="1" stop-color="#9F734C"/>
</linearGradient>
</defs>
</svg>
