<svg width="36" height="36" viewBox="0 0 36 36" fill="none" xmlns="http://www.w3.org/2000/svg">
<path d="M35.4554 30.1089V6.34653C35.4554 3.39372 33.0617 1 30.1089 1L6.34653 1C3.39373 1 1 3.39372 1 6.34653V30.1089C1 33.0617 3.39373 35.4554 6.34653 35.4554H30.1089C33.0617 35.4554 35.4554 33.0617 35.4554 30.1089Z" stroke="url(#paint0_linear_2908_6)" stroke-miterlimit="10"/>
<path d="M27.1347 13.1824C27.0436 12.4022 26.4219 11.7843 25.6377 11.7249C20.6951 11.3606 15.7525 11.3606 10.81 11.7249C10.0258 11.7843 9.40799 12.4022 9.31294 13.1824C8.91294 16.5447 8.91294 19.9111 9.31294 23.2734C9.40403 24.0536 10.0258 24.6715 10.81 24.7309C15.7525 25.0952 20.6951 25.0952 25.6377 24.7309C26.4219 24.6715 27.0397 24.0536 27.1347 23.2734C27.5347 19.9111 27.5347 16.5447 27.1347 13.1824ZM21.1466 18.1685L16.6912 20.719C16.5288 20.814 16.3228 20.6952 16.3228 20.5051V15.4002C16.3228 15.214 16.5248 15.0952 16.6912 15.1863L21.1466 17.7368C21.309 17.8319 21.309 18.0695 21.1466 18.1606V18.1685Z" fill="url(#paint1_linear_2908_6)"/>
<defs>
<linearGradient id="paint0_linear_2908_6" x1="0.80198" y1="18.2277" x2="35.6535" y2="18.2277" gradientUnits="userSpaceOnUse">
<stop stop-color="#9F734C"/>
<stop offset="0.13" stop-color="#BA945E"/>
<stop offset="0.28" stop-color="#D1B16E"/>
<stop offset="0.42" stop-color="#E2C579"/>
<stop offset="0.56" stop-color="#ECD180"/>
<stop offset="0.7" stop-color="#F0D683"/>
<stop offset="0.75" stop-color="#E7CC7D"/>
<stop offset="0.84" stop-color="#D2B16E"/>
<stop offset="0.95" stop-color="#AF8757"/>
<stop offset="1" stop-color="#9F734C"/>
</linearGradient>
<linearGradient id="paint1_linear_2908_6" x1="9.01987" y1="18.2279" x2="27.4357" y2="18.2279" gradientUnits="userSpaceOnUse">
<stop stop-color="#9F734C"/>
<stop offset="0.13" stop-color="#BA945E"/>
<stop offset="0.28" stop-color="#D1B16E"/>
<stop offset="0.42" stop-color="#E2C579"/>
<stop offset="0.56" stop-color="#ECD180"/>
<stop offset="0.7" stop-color="#F0D683"/>
<stop offset="0.75" stop-color="#E7CC7D"/>
<stop offset="0.84" stop-color="#D2B16E"/>
<stop offset="0.95" stop-color="#AF8757"/>
<stop offset="1" stop-color="#9F734C"/>
</linearGradient>
</defs>
</svg>
